<?xml version="1.0" encoding="utf-8"?>
<!-- Generator: Adobe Illustrator 26.3.1, SVG Export Plug-In . SVG Version: 6.00 Build 0)  -->
<svg version="1.1" xmlns="http://www.w3.org/2000/svg" xmlns:xlink="http://www.w3.org/1999/xlink" x="0px" y="0px"
	 viewBox="0 0 595.28 841.89" style="enable-background:new 0 0 595.28 841.89;" xml:space="preserve">


<g id="Layer_2">
	<g>
		<g>
			<path d="M185.32,308.59c-16.53-25.54-24.14-61.03-7.92-88.5c1.08-1.9,2.34-3.7,3.62-5.47c1.34-1.71,3.11-3.01,5.09-3.88
				c13.68-5.15,31.74,8.08,40.44,17.6c4.61,5.14,8.68,11.03,10.62,17.73c0.52,1.89-1.99,3.1-3.14,1.53
				c-8.04-11.13-26.88-24.42-40.53-25.9c-1.3,0.02-2.11,0.04-2.69,0.44c-0.04-0.01-0.02,0.03-0.02,0.04c0,0-0.01,0-0.01,0
				c0,0-0.01,0-0.01,0c-0.01,0-0.05,0.07-0.07,0.1l-0.3,0.46c-9.67,13.55-11.92,30.21-10.17,47.02c1.32,12.5,4.61,24.9,9.05,36.65
				C190.33,308.87,186.89,310.85,185.32,308.59L185.32,308.59z"/>
		</g>
		<g>
			<path d="M359.4,345.52c-4.34-53.59-31.73-105.4-65.35-146.46c0,0,10.42,0.54,10.42,0.54c-17.25,19.6-32.55,41.39-44.42,64.61
				c-11.19,22.5-19.89,48.26-15.55,73.25c2.13,12.14,7.69,23.36,15.95,32.54c3.97,4.35,8.19,8.68,13.61,11.25
				c15.74,7.86,36.96,7.18,48.22-7.83c7.73-9.87,10.7-23.03,12.16-35.52c0.45-3.66,5.79-3.34,5.84,0.3
				c0.54,31.53-14.4,60.76-49.83,59.32c-10.34-0.58-20.66-3.66-29.2-9.66c-15.15-11.74-26.41-28.93-29.96-47.9
				c-5.44-28.22,3.72-57.11,16.1-82.07c12.53-24.84,28.63-47.55,47.44-67.96c2.84-2.91,7.8-2.48,10.1,0.87
				c8.03,11.46,15.39,23.37,21.99,35.67c16.35,30.6,28.17,63.91,32.25,98.41c0.77,6.87,1.29,13.75,1.08,20.68
				C360.17,346.07,359.45,346.1,359.4,345.52L359.4,345.52z"/>
		</g>
		<g>
			<path d="M412.59,306.88c6.6-15.99,9.65-33.93,7.38-51.08c-1.33-9.16-4.34-18.15-9.36-25.95c-1.88-3.12-4.23-5.94-6.59-8.68
				c0,0,3.92,2.22,3.92,2.22c0.12,0.01,0.24,0.03,0.37,0.03c0,0,0.01,0,0.02-0.01c0,0,0.01-0.01,0.01-0.02
				c-1.22-0.1-2.51,0.25-3.72,0.52c-6.61,1.91-12.56,5.58-18.41,9.47c-7.66,5.3-15.07,11.62-21.95,17.94
				c-2.19,1.92-5.26-1.03-3.39-3.3c4.58-5.44,9.65-11.26,14.69-16.24c7.25-7.08,14.87-13.91,24.27-18.3
				c1.31-0.59,2.66-1.14,4.07-1.54c2.99-0.9,7.14-1.65,9.39,1.06c15.99,20.85,18.06,48.02,10.81,72.62
				c-2.27,7.83-5.2,15.34-9.14,22.5c-0.35,0.64-1.16,0.87-1.8,0.52C412.52,308.28,412.29,307.51,412.59,306.88L412.59,306.88z"/>
		</g>
		<g>
			<path d="M207.78,337.5c-30.09-21.49-69.6-36.36-106.42-25.7c-1.87,0.61-4.55,1.6-6.42,2.22c-2.37,1.08-5.11,2.15-7.41,3.37
				c0,0-4.75,2.62-4.75,2.62c-1.42,0.7-3.19,2.12-4.56,2.95c-1.33,0.86-3.22,2.14-4.4,3.17c0,0-4.25,3.39-4.25,3.39
				c-1.35,1.21-2.66,2.49-3.99,3.72c-1.15,1.06-2.86,2.66-3.86,3.86c-0.54,0.65-4.1,4.46-4.6,5.06c-0.62,0.77-1.92,2.48-2.54,3.25
				c0,0-3.39,4.32-3.39,4.32c0,0-1.51-8.94-1.5-8.92c23.2,13.83,45.68,28.76,67.99,43.95c10.02,7.4,22.32,11.3,34.74,12.22
				c12.9,0.91,25.8-1.84,37.88-6.74c0.96-0.39,2.06,0.08,2.44,1.04c0.33,0.84,0.02,1.77-0.7,2.25c-5.76,3.82-12.09,6.88-18.77,9.17
				c-13.66,4.51-28.5,5.03-42.47,1.34c-7.05-1.85-13.89-4.8-20.02-8.86c-11.49-7.07-22.95-14.2-34.27-21.53
				c-11.47-7.39-22.84-14.92-34-22.79c-2.67-1.82-3.35-5.47-1.53-8.13c0.13-0.18,0.27-0.36,0.41-0.53c0,0,3.92-4.53,3.92-4.53
				c1.14-1.31,2.77-3.27,4.01-4.45c2.51-2.48,5.99-6.11,8.73-8.27c1.54-1.29,3.05-2.62,4.61-3.88c1.78-1.26,5.63-4.11,7.38-5.25
				c2.46-1.39,5.32-3.34,7.83-4.58c0,0,5.44-2.66,5.44-2.66c2.63-1.22,5.73-2.28,8.44-3.34c25.62-8.67,53.88-4.72,78.25,5.88
				c14.3,6.18,27.67,14.09,39.78,23.93C211.28,336.4,209.47,338.78,207.78,337.5L207.78,337.5z"/>
		</g>
		<g>
			<path d="M326.14,432.87c-19.25-15.99-32.54-6.58-44.9,11.45c-13.92,21.07-7.13,35.44,18.87,33.9c1.39-0.11,1.81,1.89,0.52,2.37
				c-10.77,4.5-26.35,4.37-33.4-6.8c-11.36-17.89,6.35-45.72,22.06-55.35c15.02-9.35,32.34-3.4,40.79,11.5
				C331.42,432.5,328.19,434.83,326.14,432.87L326.14,432.87z"/>
		</g>
		<g>
			<path d="M410.1,389.65c28.12,8.58,61.17,5.37,84.3-13.58c7.96-6.77,15.79-13.81,24.48-19.76c7.41-5.11,15.65-10.21,24.73-12.85
				c0,0,0.74-0.21,0.74-0.21c-0.71,0.15-1.36,0.86-1.48,1.54c-0.13,0.53,0.02,1.26,0.37,1.65c0,0-0.05-0.06-0.05-0.06
				s-0.09-0.12-0.09-0.12l-0.75-0.95c-28.66-35.42-69.12-42.94-110.99-27.78c-12.76,4.49-25.04,10.63-36.94,17.56
				c-0.83,0.49-1.9,0.21-2.38-0.62c-0.45-0.77-0.24-1.74,0.45-2.26c11.09-8.48,23.17-15.83,36.13-21.59c2.7-1.3,7.06-2.88,9.9-3.96
				c0,0,5.1-1.64,5.1-1.64c41.41-13.13,82.77-0.18,109.48,34.05c3.19,4.14,2.58,10.47-1.41,13.89c-2.53,2.33-5.91,2.44-8.97,3.88
				c-5.87,2.46-11.57,5.9-16.92,9.53c-8.43,5.61-16.39,12.5-24.39,18.83c-8.87,6.59-19.01,11.51-29.65,14.42
				c-14.09,3.71-28.94,3.88-43.11,1.04c-5.26-1.07-10.43-2.49-15.45-4.39c-1.69-0.64-3.29-1.29-5.02-2.13
				c-1.21-0.59-1.72-2.04-1.14-3.25C407.61,389.73,408.94,389.23,410.1,389.65L410.1,389.65z"/>
		</g>
		<g>
			<path d="M162.84,360.08c12.83-5.12,27.31-0.12,38.7,6.31c29.11,16.54,60.17,59.7,71.7,90.89c1.87,5.33-5.18,9.08-8.54,4.52
				c-1.89-2.65-3.59-5.4-5.29-8.14c-12.19-19.97-23.22-41.03-38.38-58.93c-12.75-15.41-35.38-36.67-57.04-32.07
				C162.33,363.35,161.18,360.91,162.84,360.08L162.84,360.08z"/>
		</g>
		<g>
			<path d="M418.29,371.13c-29.28,3.49-46.43,30.32-52.6,57.22c-1.94,7.04-2.55,14.79-4.5,21.83
				c-6.93,22.45-24.85,40.71-45.72,50.75c-1.95,0.87-3.78-1.62-2.23-3.2c13.9-16.12,29.27-31.24,35.97-51.11
				c1.5-4.93,2.1-10.82,3.43-15.78c2.21-9.37,5.37-18.64,9.88-27.18c10.45-20.88,31.68-38.33,55.97-36.81
				C421.25,367.12,421.09,371.09,418.29,371.13L418.29,371.13z"/>
		</g>
		<g>
			<path d="M330.12,513.25c-1.52,13.32-5.31,26.34-11.42,38.28c-0.63,1.18-1.92,3.47-2.55,4.64c-5.63,9.78-5.5,20.81,2.31,29.58
				c6.12,7.28,14.86,12.03,23.22,16.44c16.33,8.87,28.53,25.81,30.3,44.4c0.12,1.59-2.08,2.33-2.88,0.87
				c-1.62-2.93-3.5-5.89-5.41-8.65c-5.47-7.94-12.27-15.21-20-20.69c-3.83-2.86-8.26-5.08-12.51-7.27
				c-4.93-2.64-9.62-5.53-14.01-9.13c-16.53-13.15-21.93-32.62-9.6-50.78c6.32-8.71,11.18-18.72,15.12-28.86
				c1.21-3.18,2.4-6.45,3.43-9.65C326.88,510.14,330.36,510.81,330.12,513.25L330.12,513.25z"/>
		</g>
		<g>
			<path  d="M278.71,494.58c3.12,10.83-4.76,21.34-12.27,28.29c-4.15,3.7-9.18,7.77-11.78,12.55c-5.95,10.68,3.51,21.29,10.46,28.94
				c3.16,3.42,4.43,7.26,5.21,11.61c0,0,0.24,1.41,0.24,1.41s0.11,1.39,0.11,1.39c0.86,12.1-3.8,23.91-9.45,34.36
				c-3.15,5.76-6.87,11.14-10.83,16.33c-0.43,0.58-1.25,0.69-1.83,0.26c-0.51-0.38-0.65-1.06-0.39-1.61
				c1.85-4.44,3.89-8.72,5.57-13.2c4.44-11.16,10.28-29.09,5.22-40.42c0,0-0.38-0.77-0.38-0.77c-0.16-0.31-0.95-1.46-1.01-1.44
				c0,0-1.88-1.83-1.88-1.83c-20.12-19.94-20.44-39.62,4.56-55.2c6.76-4.88,14.07-11.07,15.1-19.78c0,0,0.18-0.75,0.18-0.75
				C275.88,493.18,278.22,493.03,278.71,494.58L278.71,494.58z"/>
		</g>
	</g>
</g>
</svg>
